<?xml version="1.0" encoding="UTF-8" standalone="no"?>
<!DOCTYPE svg PUBLIC "-//W3C//DTD SVG 1.1//EN" "http://www.w3.org/Graphics/SVG/1.1/DTD/svg11.dtd">
<svg width="100%" height="100%" viewBox="0 0 200 200" version="1.1" xmlns="http://www.w3.org/2000/svg" xmlns:xlink="http://www.w3.org/1999/xlink" xml:space="preserve" xmlns:serif="http://www.serif.com/" style="fill-rule:evenodd;clip-rule:evenodd;stroke-linejoin:round;stroke-miterlimit:1.41421;">
    <g transform="matrix(1,0,0,1,-213,-236)">
        <g id="Robottino-Separato" serif:id="Robottino Separato" transform="matrix(1.24224,0,0,1.24224,208.031,231.031)">
            <path d="M103.83,131.08C102.542,121.955 94.656,115.094 85.44,115.08L82,115.08C72.766,115.069 64.851,121.936 63.56,131.08C62.208,140.352 61.519,149.71 61.5,159.08C61.506,160.32 62.371,161.402 63.58,161.68C67.58,162.59 76.45,164.42 83.66,164.43C90.87,164.44 99.78,162.63 103.75,161.73C104.959,161.457 105.829,160.379 105.84,159.14C105.84,149.751 105.168,140.373 103.83,131.08Z" style="fill:rgb(100,255,249);fill-rule:nonzero;"/>
            <path d="M133.15,75.33C132.663,75.233 132.166,75.192 131.67,75.21C130.3,51.68 109.73,33 84.56,33C59.39,33 38.83,51.68 37.46,75.21C37.4,75.208 37.34,75.207 37.28,75.207C33.764,75.207 30.87,78.101 30.87,81.617C30.87,82.048 30.914,82.478 31,82.9L31.91,87.4C32.622,90.848 36.04,93.102 39.49,92.4L40,92.3C46.38,109.82 63.94,122.41 84.61,122.41C105.28,122.41 122.83,109.82 129.22,92.3L129.73,92.43C133.18,93.132 136.598,90.878 137.31,87.43L138.22,82.93C138.929,79.477 136.672,76.052 133.22,75.34L133.15,75.33Z" style="fill:rgb(100,255,249);fill-rule:nonzero;"/>
            <g transform="matrix(0.126891,-0.991917,0.991917,0.126891,53.13,187.66)">
                <rect x="119" y="62.5" width="28.33" height="2.3" style="fill:rgb(100,255,249);"/>
            </g>
            <circle cx="134.96" cy="49.61" r="3.6" style="fill:rgb(100,255,249);"/>
            <g transform="matrix(0.991917,-0.126891,0.126891,0.991917,-7.79,5.08)">
                <rect x="34.81" y="49.49" width="2.3" height="28.33" style="fill:rgb(100,255,249);"/>
            </g>
            <circle cx="34.16" cy="49.61" r="3.6" style="fill:rgb(100,255,249);"/>
            <g transform="matrix(0.805,0,0,0.805,-44.3,-43.73)">
                <path d="M160,59.292C215.192,59.292 260,104.1 260,159.292C260,214.483 215.192,259.292 160,259.292C104.808,259.292 60,214.483 60,159.292C60,104.1 104.808,59.292 160,59.292ZM160.075,66.292C211.403,66.292 253.075,107.964 253.075,159.292C253.075,210.62 211.403,252.292 160.075,252.292C108.746,252.292 67.075,210.62 67.075,159.292C67.075,107.964 108.746,66.292 160.075,66.292Z" style="fill:rgb(100,255,249);"/>
            </g>
        </g>
    </g>
</svg>
