<svg xmlns="http://www.w3.org/2000/svg" viewBox="0 0 1058.1 227.54"><defs><style>.cls-1{fill:#4810ef;}.cls-2{fill:#15fff6;}.cls-3{fill:none;stroke:#4810ef;stroke-miterlimit:10;stroke-width:8px;}</style></defs><title>we-code_sponsor</title><g id="Layer_2" data-name="Layer 2"><g id="Layer_3" data-name="Layer 3"><path class="cls-1" d="M316,55.57h9.88l-13.22,45.7H302.21l-8.84-31.89-9.1,31.89H273.79l-13-45.7h9.82l8.77,35.29,9.24-35.29h10.41l8.71,35Z"/><path class="cls-1" d="M347,101.79a17.12,17.12,0,0,1-12.9-5.14q-5-5.13-5-13.58t5-13.52a17.4,17.4,0,0,1,13-5.08,18,18,0,0,1,13.06,4.94q5.1,4.95,5.11,13.2a21.63,21.63,0,0,1-.27,3.53H338.55a8.62,8.62,0,0,0,2.62,5.7A8.16,8.16,0,0,0,347,94a7.63,7.63,0,0,0,7.07-3.93H364a15.94,15.94,0,0,1-6.09,8.45A18.15,18.15,0,0,1,347,101.79Zm6.05-27.37a8.64,8.64,0,0,0-5.92-2.16,8.19,8.19,0,0,0-5.8,2.16,9.14,9.14,0,0,0-2.78,5.77h17.16A8,8,0,0,0,353.05,74.42Z"/><path class="cls-1" d="M372.8,81.76V74.1h27.82v7.66Z"/><path class="cls-1" d="M414.9,95.05a22.48,22.48,0,0,1-6.75-16.76,22.43,22.43,0,0,1,6.78-16.77,22.9,22.9,0,0,1,16.6-6.61,23.65,23.65,0,0,1,13.26,3.8,20.86,20.86,0,0,1,8.28,10.67H442q-3.08-6-10.48-6a13.34,13.34,0,0,0-10.12,4.09q-3.89,4.1-3.89,10.87t3.89,10.87a13.34,13.34,0,0,0,10.12,4.09q7.34,0,10.48-6h11.06a20.71,20.71,0,0,1-8.28,10.64,23.78,23.78,0,0,1-13.26,3.76A22.81,22.81,0,0,1,414.9,95.05Z"/><path class="cls-1" d="M463.88,96.62q-5.31-5.18-5.31-13.55t5.37-13.49a19.93,19.93,0,0,1,26.65,0Q496,74.68,496,83.07t-5.4,13.55a18.59,18.59,0,0,1-13.39,5.17A18.24,18.24,0,0,1,463.88,96.62ZM477.17,94a9,9,0,0,0,6.65-2.85q2.78-2.85,2.78-8.05t-2.75-8a8.94,8.94,0,0,0-6.65-2.82,8.73,8.73,0,0,0-6.58,2.82q-2.69,2.82-2.68,8c0,3.5.89,6.18,2.68,8.06A8.72,8.72,0,0,0,477.17,94Z"/><path class="cls-1" d="M505.62,96.52q-4.87-5.26-4.88-13.45t4.85-13.39a16.08,16.08,0,0,1,12.31-5.21,12.7,12.7,0,0,1,11.39,6.16V52.82h9.17v48.45h-9.17V95.18q-4.12,6.61-11.46,6.61A15.91,15.91,0,0,1,505.62,96.52ZM526.41,91a10.52,10.52,0,0,0,2.88-7.83,10.51,10.51,0,0,0-2.88-7.82,9.42,9.42,0,0,0-13.46,0,10.51,10.51,0,0,0-2.84,7.8A10.6,10.6,0,0,0,513,90.92a9.28,9.28,0,0,0,13.42,0Z"/><path class="cls-1" d="M563.6,101.79a17.15,17.15,0,0,1-12.9-5.14q-5-5.13-5-13.58t5-13.52a17.39,17.39,0,0,1,13-5.08,18,18,0,0,1,13.06,4.94q5.12,4.95,5.11,13.2a22.86,22.86,0,0,1-.26,3.53H555.16a8.61,8.61,0,0,0,2.61,5.7A8.18,8.18,0,0,0,563.6,94a7.61,7.61,0,0,0,7.07-3.93h10a15.94,15.94,0,0,1-6.09,8.45A18.16,18.16,0,0,1,563.6,101.79Zm6.06-27.37a8.67,8.67,0,0,0-5.93-2.16,8.18,8.18,0,0,0-5.79,2.16,9.14,9.14,0,0,0-2.78,5.77h17.15A7.91,7.91,0,0,0,569.66,74.42Z"/><path class="cls-1" d="M624.3,55.57q11,0,17.78,6.28t6.78,16.63q0,10.35-6.78,16.57t-17.78,6.22H608.78V55.57ZM618,94.26h6.28q7.2,0,11.2-4.25t4-11.53q0-7.26-4-11.52T624.3,62.7H618Z"/><path class="cls-1" d="M666.34,55.76a5.46,5.46,0,0,1-1.64,4,5.63,5.63,0,0,1-7.92,0,5.69,5.69,0,0,1,0-8,5.6,5.6,0,0,1,9.56,4Zm-10.22,45.51V65h9.24v36.28Z"/><path class="cls-1" d="M677.5,96.52q-4.87-5.26-4.88-13.45t4.85-13.39a16.08,16.08,0,0,1,12.31-5.21,12.68,12.68,0,0,1,11.39,6.16V65h9.17v36.54q0,7.8-4.58,12.74t-12.87,4.94q-8.28,0-13.16-3.44A13,13,0,0,1,674.2,106h9a7.08,7.08,0,0,0,3.28,3.84,12,12,0,0,0,6.09,1.4,8.35,8.35,0,0,0,6.12-2.42c1.63-1.61,2.45-4,2.45-7.27V95.18q-4.12,6.61-11.46,6.61A15.91,15.91,0,0,1,677.5,96.52ZM698.29,91a10.52,10.52,0,0,0,2.88-7.83,10.51,10.51,0,0,0-2.88-7.82,9.41,9.41,0,0,0-13.45,0,10.48,10.48,0,0,0-2.85,7.8,10.6,10.6,0,0,0,2.88,7.85,9.28,9.28,0,0,0,13.42,0Z"/><path class="cls-1" d="M730.38,55.76a5.46,5.46,0,0,1-1.64,4,5.63,5.63,0,0,1-7.92,0,5.69,5.69,0,0,1,0-8,5.6,5.6,0,0,1,9.56,4Zm-10.22,45.51V65h9.23v36.28Z"/><path class="cls-1" d="M753.29,93.54h4.39v7.73h-5.83q-5.57,0-8.57-2.55c-2-1.71-3-4.52-3-8.45V72.52H736.4V65h3.86V56h9.24v9h8.12v7.53H749.5V90.27a3.21,3.21,0,0,0,.85,2.52A4.46,4.46,0,0,0,753.29,93.54Z"/><path class="cls-1" d="M767.21,96.52q-4.87-5.26-4.88-13.45t4.85-13.39a16.08,16.08,0,0,1,12.31-5.21,12.7,12.7,0,0,1,11.39,6.16V65h9.17v36.28h-9.17V95.18q-4.12,6.61-11.46,6.61A15.91,15.91,0,0,1,767.21,96.52ZM788,91a10.52,10.52,0,0,0,2.88-7.83A10.51,10.51,0,0,0,788,75.31a9.42,9.42,0,0,0-13.46,0,10.48,10.48,0,0,0-2.85,7.8,10.6,10.6,0,0,0,2.88,7.85A9.29,9.29,0,0,0,788,91Z"/><path class="cls-1" d="M809.87,101.27V52.82h9.23v48.45Z"/><path class="cls-1" d="M863.36,62.31a6.86,6.86,0,0,0-4.48,1.41,4.74,4.74,0,0,0-1.74,3.89,5.61,5.61,0,0,0,1.28,3.9,8.12,8.12,0,0,0,3.37,2.16A42.69,42.69,0,0,0,866.38,75q2.48.6,5,1.44a24.7,24.7,0,0,1,4.59,2.1,9.12,9.12,0,0,1,3.37,3.63,12.21,12.21,0,0,1,1.27,5.8,12.64,12.64,0,0,1-4.48,9.69q-4.49,4.06-11.92,4.06t-12-3.5a11.69,11.69,0,0,1-4.59-9.86h9.83c.34,4,2.64,6,6.87,6a7.22,7.22,0,0,0,5-1.64,5.55,5.55,0,0,0,1.83-4.36,4.89,4.89,0,0,0-2.42-4.29,18.24,18.24,0,0,0-5.86-2.35c-2.29-.53-4.6-1.16-6.91-1.9A12.79,12.79,0,0,1,850,76a10.78,10.78,0,0,1-2.43-7.36,12.28,12.28,0,0,1,4.52-10q4.51-3.73,11.62-3.73t11.43,3.24q4.32,3.24,4.71,9.86H869.78a6.21,6.21,0,0,0-2-4.16A6.38,6.38,0,0,0,863.36,62.31Z"/><path class="cls-1" d="M903.5,93.54h4.39v7.73h-5.83q-5.56,0-8.58-2.55c-2-1.71-3-4.52-3-8.45V72.52h-3.86V65h3.86V56h9.24v9h8.11v7.53h-8.11V90.27a3.21,3.21,0,0,0,.85,2.52A4.46,4.46,0,0,0,903.5,93.54Z"/><path class="cls-1" d="M940.11,65h9.23v36.28h-9.23v-5.5q-3.48,6-11.33,6a13.36,13.36,0,0,1-10.09-4.09q-3.91-4.1-3.92-11.36V65h9.16V85a9.16,9.16,0,0,0,2.16,6.54,7.72,7.72,0,0,0,5.9,2.3,7.81,7.81,0,0,0,5.92-2.3,9.09,9.09,0,0,0,2.2-6.54Z"/><path class="cls-1" d="M961.48,96.52q-4.87-5.26-4.87-13.45t4.84-13.39a16.1,16.1,0,0,1,12.31-5.21,12.7,12.7,0,0,1,11.4,6.16V52.82h9.16v48.45h-9.16V95.18q-4.12,6.61-11.46,6.61A16,16,0,0,1,961.48,96.52ZM982.27,91a10.48,10.48,0,0,0,2.89-7.83,10.48,10.48,0,0,0-2.89-7.82,9.41,9.41,0,0,0-13.45,0,10.48,10.48,0,0,0-2.85,7.8,10.6,10.6,0,0,0,2.88,7.85,9.28,9.28,0,0,0,13.42,0Z"/><path class="cls-1" d="M1014.36,55.76a5.46,5.46,0,0,1-1.64,4,5.63,5.63,0,0,1-7.92,0,5.69,5.69,0,0,1,0-8,5.6,5.6,0,0,1,9.56,4Zm-10.22,45.51V65h9.24v36.28Z"/><path class="cls-1" d="M1026,96.62q-5.29-5.18-5.3-13.55t5.37-13.49a19.93,19.93,0,0,1,26.65,0q5.37,5.1,5.37,13.49t-5.4,13.55a18.61,18.61,0,0,1-13.39,5.17A18.28,18.28,0,0,1,1026,96.62Zm13.3-2.62a9,9,0,0,0,6.64-2.85q2.79-2.85,2.79-8.05t-2.75-8a9,9,0,0,0-6.65-2.82,8.73,8.73,0,0,0-6.58,2.82q-2.68,2.82-2.69,8c0,3.5.9,6.18,2.69,8.06A8.72,8.72,0,0,0,1039.31,94Z"/><path class="cls-1" d="M262.11,144.78h7.44l4.37,30.86h.55l4.37-30.86h7.44v32.53h-3.63V146.46h-.56l-4.36,30.85h-7.07l-4.37-30.85h-.55v30.85h-3.63Z"/><path class="cls-1" d="M314.21,166.07a12.7,12.7,0,0,1-1,5.09,11.09,11.09,0,0,1-2.53,3.71,10.51,10.51,0,0,1-3.69,2.3,12.41,12.41,0,0,1-4.4.79,12.27,12.27,0,0,1-4.41-.79,10.61,10.61,0,0,1-3.67-2.3,11.09,11.09,0,0,1-2.53-3.71,12.7,12.7,0,0,1-1-5.09v-.56a12.52,12.52,0,0,1,1-5,11.18,11.18,0,0,1,2.55-3.74,10.75,10.75,0,0,1,3.7-2.33,12.45,12.45,0,0,1,8.73,0,10.75,10.75,0,0,1,3.7,2.33,11.18,11.18,0,0,1,2.55,3.74,12.52,12.52,0,0,1,1,5Zm-11.58,8.45a8,8,0,0,0,3.09-.58,7.06,7.06,0,0,0,2.49-1.69,8.11,8.11,0,0,0,1.67-2.67,9.5,9.5,0,0,0,.61-3.51v-.56a9.24,9.24,0,0,0-.61-3.42,8.11,8.11,0,0,0-1.67-2.67,7.74,7.74,0,0,0-2.51-1.74,7.77,7.77,0,0,0-6.13,0,7.74,7.74,0,0,0-2.51,1.74,8.14,8.14,0,0,0-1.68,2.67,9.45,9.45,0,0,0-.6,3.42v.56a9.72,9.72,0,0,0,.6,3.51,8.14,8.14,0,0,0,1.68,2.67,7.11,7.11,0,0,0,2.48,1.69A8.06,8.06,0,0,0,302.63,174.52Z"/><path class="cls-1" d="M323.69,177.31h-3.63V144.78h3.63v13.11h.55a7.9,7.9,0,0,1,3.35-3.18,10,10,0,0,1,4.65-1.1,10.58,10.58,0,0,1,4,.79,10.26,10.26,0,0,1,3.37,2.28,10.86,10.86,0,0,1,2.32,3.67,13.56,13.56,0,0,1,.86,5v.93a13.9,13.9,0,0,1-.84,5,10.29,10.29,0,0,1-2.3,3.67,9.69,9.69,0,0,1-3.41,2.26,11.23,11.23,0,0,1-4.14.76,10.52,10.52,0,0,1-2.27-.25,9.38,9.38,0,0,1-2.21-.79,9.75,9.75,0,0,1-1.93-1.3,7.25,7.25,0,0,1-1.49-1.84h-.55Zm7.71-2.79a7.88,7.88,0,0,0,3.07-.58,7.12,7.12,0,0,0,2.44-1.65,7.55,7.55,0,0,0,1.62-2.6,9.59,9.59,0,0,0,.58-3.44v-.93a9.27,9.27,0,0,0-.58-3.37,7.94,7.94,0,0,0-1.62-2.6,7.3,7.3,0,0,0-2.47-1.69,7.54,7.54,0,0,0-3-.61,7.23,7.23,0,0,0-3,.63,7.67,7.67,0,0,0-2.44,1.74,8.23,8.23,0,0,0-1.65,2.67,9.45,9.45,0,0,0-.6,3.42v.56a9.55,9.55,0,0,0,.6,3.46,8,8,0,0,0,1.65,2.67,7.32,7.32,0,0,0,2.44,1.72A7.54,7.54,0,0,0,331.4,174.52Z"/><path class="cls-1" d="M349.89,174H358V157.61h-7.25v-3.35H361.6V174h7.53v3.34H349.89Zm6.6-26.58a3.28,3.28,0,0,1,3.26-3.26,3.25,3.25,0,1,1-3.26,3.26Z"/><path class="cls-1" d="M377.78,174h8.36V148.13h-8.09v-3.35h11.71V174h8.37v3.34H377.78Z"/><path class="cls-1" d="M408.86,166.9a8.2,8.2,0,0,0,2.14,5.53,7.32,7.32,0,0,0,5.58,2.09,9.57,9.57,0,0,0,2.83-.37,6.67,6.67,0,0,0,2.07-1,5.52,5.52,0,0,0,1.39-1.51,7.94,7.94,0,0,0,.86-1.84l3.44.93a10.18,10.18,0,0,1-3.6,5.23,11.31,11.31,0,0,1-7.09,2,11.57,11.57,0,0,1-4.53-.86,10,10,0,0,1-3.55-2.44,11.14,11.14,0,0,1-2.32-3.76,13.38,13.38,0,0,1-.84-4.83V165a11.65,11.65,0,0,1,.86-4.51,10.75,10.75,0,0,1,2.39-3.6,11.39,11.39,0,0,1,3.6-2.37,11.66,11.66,0,0,1,4.49-.86,10.7,10.7,0,0,1,4.9,1,10.94,10.94,0,0,1,3.39,2.58,10,10,0,0,1,1.95,3.34,10.29,10.29,0,0,1,.63,3.35v3Zm7.72-9.85a8.11,8.11,0,0,0-2.86.49,7.09,7.09,0,0,0-2.32,1.37,7.29,7.29,0,0,0-1.63,2.07,7.49,7.49,0,0,0-.81,2.58h14.87a7,7,0,0,0-.72-2.7,6.65,6.65,0,0,0-1.63-2,7.8,7.8,0,0,0-4.9-1.77Z"/><path class="cls-1" d="M479.82,173.41h-.55a7.62,7.62,0,0,1-3.1,3.44A8.33,8.33,0,0,1,472,178a11.48,11.48,0,0,1-4.23-.76,9.6,9.6,0,0,1-3.42-2.28,11,11,0,0,1-2.3-3.69,14.11,14.11,0,0,1-.84-5.07v-.74a13.9,13.9,0,0,1,.84-5,10.9,10.9,0,0,1,2.3-3.7,10.06,10.06,0,0,1,3.42-2.3,11,11,0,0,1,4.13-.79,8.83,8.83,0,0,1,4.3,1,7.36,7.36,0,0,1,3,3.23h.55v-3.63h3.63v18.31c0,.93.42,1.4,1.25,1.4h1.16v3.34H483.4a3.47,3.47,0,0,1-2.58-1,3.59,3.59,0,0,1-1-2.6Zm-7.43,1.11a7.36,7.36,0,0,0,3-.6,6.6,6.6,0,0,0,2.35-1.72,8.32,8.32,0,0,0,1.54-2.67,10.25,10.25,0,0,0,.55-3.46v-.56a10.14,10.14,0,0,0-.55-3.42,8.39,8.39,0,0,0-1.56-2.67,7.28,7.28,0,0,0-2.37-1.74,7,7,0,0,0-2.95-.63,7.09,7.09,0,0,0-3,.61,6.88,6.88,0,0,0-2.34,1.69,7.65,7.65,0,0,0-1.56,2.65,10.14,10.14,0,0,0-.56,3.42v.74a8.66,8.66,0,0,0,2.07,6.16A7,7,0,0,0,472.39,174.52Z"/><path class="cls-1" d="M495.16,177.31h-3.63V154.26h3.63v3.91h.56a7.55,7.55,0,0,1,7.43-4.56,8.39,8.39,0,0,1,6.37,2.49c1.58,1.66,2.37,4.14,2.37,7.46v13.75h-3.63v-13a8,8,0,0,0-1.62-5.44,5.68,5.68,0,0,0-4.42-1.81,6.36,6.36,0,0,0-5.18,2.26,9.08,9.08,0,0,0-1.88,6Z"/><path class="cls-1" d="M537.82,173.78h-.56a6.66,6.66,0,0,1-1.42,1.86,8.1,8.1,0,0,1-1.86,1.3,9,9,0,0,1-2.11.77,9.58,9.58,0,0,1-2.14.25,11.56,11.56,0,0,1-4.32-.79,10.12,10.12,0,0,1-5.88-6,13.87,13.87,0,0,1-.86-5v-.74a13.55,13.55,0,0,1,.88-5,11.19,11.19,0,0,1,2.37-3.72,10.25,10.25,0,0,1,3.49-2.3,11.52,11.52,0,0,1,4.23-.79,9.68,9.68,0,0,1,4.44,1,7.16,7.16,0,0,1,3.18,3.23h.56V144.78h3.62v32.53h-3.62Zm-7.72.74a7.54,7.54,0,0,0,3-.6,7.22,7.22,0,0,0,2.44-1.72,8,8,0,0,0,1.65-2.67,9.35,9.35,0,0,0,.61-3.46v-.56a9.24,9.24,0,0,0-.61-3.42,8.23,8.23,0,0,0-1.65-2.67,7.54,7.54,0,0,0-2.46-1.74,7.3,7.3,0,0,0-3-.63,7.54,7.54,0,0,0-3,.61,7,7,0,0,0-2.46,1.72A7.88,7.88,0,0,0,523,162a9.52,9.52,0,0,0-.58,3.4v.74a9.79,9.79,0,0,0,.58,3.49,7.7,7.7,0,0,0,1.63,2.62,7,7,0,0,0,2.44,1.67A7.83,7.83,0,0,0,530.1,174.52Z"/><path class="cls-1" d="M597.44,177.31h-7.11l-3-30.85h-.56l-3,30.85h-7.11l-3.3-32.53h3.53L580,175.64h.56l2.93-30.86h7.16l2.92,30.86h.56l3.11-30.86h3.54Z"/><path class="cls-1" d="M607.94,166.9a8.11,8.11,0,0,0,2.14,5.53,7.31,7.31,0,0,0,5.57,2.09,9.64,9.64,0,0,0,2.84-.37,6.9,6.9,0,0,0,2.07-1,5.68,5.68,0,0,0,1.39-1.51,8.37,8.37,0,0,0,.86-1.84l3.44.93a10.18,10.18,0,0,1-3.6,5.23,11.33,11.33,0,0,1-7.09,2,11.57,11.57,0,0,1-4.53-.86,10.15,10.15,0,0,1-3.56-2.44,11.3,11.3,0,0,1-2.32-3.76,13.38,13.38,0,0,1-.84-4.83V165a11.83,11.83,0,0,1,.86-4.51,10.77,10.77,0,0,1,2.4-3.6,11.39,11.39,0,0,1,3.6-2.37,11.61,11.61,0,0,1,4.48-.86,10.74,10.74,0,0,1,4.91,1,11.18,11.18,0,0,1,3.39,2.58,10.67,10.67,0,0,1,2.58,6.69v3Zm7.71-9.85a8.05,8.05,0,0,0-2.85.49,7.14,7.14,0,0,0-2.33,1.37,7.25,7.25,0,0,0-1.62,2.07,7.72,7.72,0,0,0-.82,2.58H622.9a6.67,6.67,0,0,0-.72-2.7,6.77,6.77,0,0,0-1.62-2,7.55,7.55,0,0,0-2.28-1.3A7.64,7.64,0,0,0,615.65,157.05Z"/><path class="cls-1" d="M636.52,177.31h-3.63V144.78h3.63v13.11h.56a7.88,7.88,0,0,1,3.34-3.18,10.08,10.08,0,0,1,4.65-1.1,10.58,10.58,0,0,1,4,.79,10.26,10.26,0,0,1,3.37,2.28,10.71,10.71,0,0,1,2.32,3.67,13.35,13.35,0,0,1,.86,5v.93a14.13,14.13,0,0,1-.83,5,10.58,10.58,0,0,1-2.3,3.67,9.82,9.82,0,0,1-3.42,2.26A11.22,11.22,0,0,1,645,178a10.54,10.54,0,0,1-2.28-.25,9.38,9.38,0,0,1-2.21-.79,9.75,9.75,0,0,1-1.93-1.3,7,7,0,0,1-1.48-1.84h-.56Zm7.71-2.79a7.85,7.85,0,0,0,3.07-.58,7.12,7.12,0,0,0,2.44-1.65,7.42,7.42,0,0,0,1.63-2.6,9.81,9.81,0,0,0,.58-3.44v-.93a9.49,9.49,0,0,0-.58-3.37,7.8,7.8,0,0,0-1.63-2.6,7.36,7.36,0,0,0-2.46-1.69,7.59,7.59,0,0,0-3-.61,7.26,7.26,0,0,0-3,.63,7.67,7.67,0,0,0-2.44,1.74,8.23,8.23,0,0,0-1.65,2.67,9.45,9.45,0,0,0-.6,3.42v.56a9.55,9.55,0,0,0,.6,3.46,8,8,0,0,0,1.65,2.67,7.32,7.32,0,0,0,2.44,1.72A7.57,7.57,0,0,0,644.23,174.52Z"/><path class="cls-1" d="M690,144.78h10.69c4,0,7,1,8.83,2.89s2.78,5,2.78,9.2v8.36q0,6.32-2.78,9.2c-1.86,1.92-4.81,2.88-8.83,2.88H690v-3.67h2.79V148.41H690Zm10.13,28.91a14.31,14.31,0,0,0,3.69-.42,5.7,5.7,0,0,0,2.58-1.42,5.89,5.89,0,0,0,1.51-2.67,15.21,15.21,0,0,0,.49-4.23v-7.81a15.13,15.13,0,0,0-.49-4.22,6,6,0,0,0-1.51-2.68,5.78,5.78,0,0,0-2.58-1.41,14.31,14.31,0,0,0-3.69-.42h-3.44v25.28Z"/><path class="cls-1" d="M721.7,166.9a8.15,8.15,0,0,0,2.13,5.53,7.34,7.34,0,0,0,5.58,2.09,9.64,9.64,0,0,0,2.84-.37,6.73,6.73,0,0,0,2.06-1,5.56,5.56,0,0,0,1.4-1.51,8.85,8.85,0,0,0,.86-1.84l3.44.93a10.2,10.2,0,0,1-3.61,5.23,11.3,11.3,0,0,1-7.08,2,11.57,11.57,0,0,1-4.53-.86,10.06,10.06,0,0,1-3.56-2.44,11.3,11.3,0,0,1-2.32-3.76,13.38,13.38,0,0,1-.84-4.83V165a11.83,11.83,0,0,1,.86-4.51,10.62,10.62,0,0,1,2.4-3.6,11.39,11.39,0,0,1,3.6-2.37,11.57,11.57,0,0,1,4.48-.86,10.7,10.7,0,0,1,4.9,1,11.11,11.11,0,0,1,3.4,2.58,10.58,10.58,0,0,1,2.57,6.69v3Zm7.71-9.85a8.15,8.15,0,0,0-2.86.49,7.19,7.19,0,0,0-2.32,1.37A7.29,7.29,0,0,0,722.6,161a7.71,7.71,0,0,0-.81,2.58h14.87a6.58,6.58,0,0,0-2.35-4.74,7.38,7.38,0,0,0-2.27-1.3A7.68,7.68,0,0,0,729.41,157.05Z"/><path class="cls-1" d="M761.2,177.31H754l-8-23.05h4.28l7.06,21.38h.56L765,154.26h4.27Z"/><path class="cls-1" d="M778.58,166.9a8.15,8.15,0,0,0,2.13,5.53,7.32,7.32,0,0,0,5.58,2.09,9.57,9.57,0,0,0,2.83-.37,6.67,6.67,0,0,0,2.07-1,5.72,5.72,0,0,0,1.4-1.51,8.85,8.85,0,0,0,.86-1.84l3.43.93a10.18,10.18,0,0,1-3.6,5.23,11.3,11.3,0,0,1-7.08,2,11.5,11.5,0,0,1-4.53-.86,10.06,10.06,0,0,1-3.56-2.44,11.14,11.14,0,0,1-2.32-3.76,13.38,13.38,0,0,1-.84-4.83V165a11.83,11.83,0,0,1,.86-4.51,10.75,10.75,0,0,1,2.39-3.6,11.42,11.42,0,0,1,8.09-3.23,10.7,10.7,0,0,1,4.9,1,10.94,10.94,0,0,1,3.39,2.58,10.16,10.16,0,0,1,2,3.34,10.53,10.53,0,0,1,.62,3.35v3Zm7.71-9.85a8.11,8.11,0,0,0-2.86.49,7.09,7.09,0,0,0-2.32,1.37,7.29,7.29,0,0,0-1.63,2.07,7.49,7.49,0,0,0-.81,2.58h14.87a6.58,6.58,0,0,0-2.35-4.74,7.38,7.38,0,0,0-2.27-1.3A7.68,7.68,0,0,0,786.29,157.05Z"/><path class="cls-1" d="M804.37,174h8.36V148.13h-8.08v-3.35h11.71V174h8.36v3.34H804.37Z"/><path class="cls-1" d="M854.55,166.07a12.7,12.7,0,0,1-.95,5.09,11.09,11.09,0,0,1-2.53,3.71,10.64,10.64,0,0,1-3.7,2.3,12.65,12.65,0,0,1-8.8,0,10.52,10.52,0,0,1-3.67-2.3,11.12,11.12,0,0,1-2.54-3.71,12.87,12.87,0,0,1-1-5.09v-.56a12.69,12.69,0,0,1,1-5,11.35,11.35,0,0,1,2.56-3.74,10.81,10.81,0,0,1,3.69-2.33,12.48,12.48,0,0,1,8.74,0,10.62,10.62,0,0,1,3.69,2.33,11.2,11.2,0,0,1,2.56,3.74,12.52,12.52,0,0,1,.95,5ZM843,174.52a8,8,0,0,0,3.09-.58,7.06,7.06,0,0,0,2.49-1.69,8.11,8.11,0,0,0,1.67-2.67,9.71,9.71,0,0,0,.61-3.51v-.56a9.45,9.45,0,0,0-.61-3.42,8.11,8.11,0,0,0-1.67-2.67,7.74,7.74,0,0,0-2.51-1.74,7.77,7.77,0,0,0-6.13,0,7.74,7.74,0,0,0-2.51,1.74,8.14,8.14,0,0,0-1.68,2.67,9.45,9.45,0,0,0-.6,3.42v.56a9.72,9.72,0,0,0,.6,3.51,8.14,8.14,0,0,0,1.68,2.67,7.11,7.11,0,0,0,2.48,1.69A8.06,8.06,0,0,0,843,174.52Z"/><path class="cls-1" d="M864,186.61h-3.62V154.26H864v3.63h.56a7.9,7.9,0,0,1,3.35-3.18,10,10,0,0,1,4.64-1.1,10.59,10.59,0,0,1,4,.79,10.26,10.26,0,0,1,3.37,2.28,10.86,10.86,0,0,1,2.32,3.67,13.56,13.56,0,0,1,.86,5v.93a13.9,13.9,0,0,1-.84,5,10.43,10.43,0,0,1-2.3,3.67,9.69,9.69,0,0,1-3.41,2.26,11.23,11.23,0,0,1-4.14.76,10.68,10.68,0,0,1-2.28-.25,9.31,9.31,0,0,1-2.2-.79,9.75,9.75,0,0,1-1.93-1.3,7,7,0,0,1-1.49-1.84H864Zm7.72-12.09a7.83,7.83,0,0,0,3.06-.58,7,7,0,0,0,2.44-1.65,7.42,7.42,0,0,0,1.63-2.6,9.59,9.59,0,0,0,.58-3.44v-.93a9.27,9.27,0,0,0-.58-3.37,7.8,7.8,0,0,0-1.63-2.6,7.16,7.16,0,0,0-2.46-1.69,7.54,7.54,0,0,0-3-.61,7.23,7.23,0,0,0-3,.63,7.56,7.56,0,0,0-2.44,1.74,8.23,8.23,0,0,0-1.65,2.67,9.24,9.24,0,0,0-.61,3.42v.56a9.35,9.35,0,0,0,.61,3.46,8,8,0,0,0,1.65,2.67,7.22,7.22,0,0,0,2.44,1.72A7.54,7.54,0,0,0,871.75,174.52Z"/><path class="cls-1" d="M911.85,177.31h-3.62V160.77a4.46,4.46,0,0,0-.75-2.67,2.69,2.69,0,0,0-2.37-1,3.07,3.07,0,0,0-2.48,1.14,5.37,5.37,0,0,0-1,3.51v15.61h-3.62V160.58a3.8,3.8,0,0,0-.84-2.53,2.77,2.77,0,0,0-2.23-1,3,3,0,0,0-2.58,1.21,5.17,5.17,0,0,0-.9,3.16v15.89h-3.63V154.26h3.63v2.51h.55a4.79,4.79,0,0,1,1.77-2.39,4.87,4.87,0,0,1,2.74-.77,4.26,4.26,0,0,1,2.77.89,4.53,4.53,0,0,1,1.51,2.27h.55a5.28,5.28,0,0,1,5-3.16,5,5,0,0,1,4,1.65,6.35,6.35,0,0,1,1.42,4.3Z"/><path class="cls-1" d="M920.77,166.9a8.2,8.2,0,0,0,2.14,5.53,7.32,7.32,0,0,0,5.58,2.09,9.57,9.57,0,0,0,2.83-.37,6.67,6.67,0,0,0,2.07-1,5.52,5.52,0,0,0,1.39-1.51,7.94,7.94,0,0,0,.86-1.84l3.44.93a10.18,10.18,0,0,1-3.6,5.23,11.31,11.31,0,0,1-7.09,2,11.57,11.57,0,0,1-4.53-.86,10,10,0,0,1-3.55-2.44A11.32,11.32,0,0,1,918,170.9a13.6,13.6,0,0,1-.83-4.83V165a11.65,11.65,0,0,1,.86-4.51,10.75,10.75,0,0,1,2.39-3.6,11.39,11.39,0,0,1,3.6-2.37,11.66,11.66,0,0,1,4.49-.86,10.7,10.7,0,0,1,4.9,1,10.94,10.94,0,0,1,3.39,2.58,10.13,10.13,0,0,1,2,3.34,10.29,10.29,0,0,1,.63,3.35v3Zm7.72-9.85a8.07,8.07,0,0,0-2.86.49,7.09,7.09,0,0,0-2.32,1.37,7.29,7.29,0,0,0-1.63,2.07,7.49,7.49,0,0,0-.81,2.58h14.87a7,7,0,0,0-.72-2.7,6.8,6.8,0,0,0-1.63-2,7.8,7.8,0,0,0-4.9-1.77Z"/><path class="cls-1" d="M950.19,177.31h-3.63V154.26h3.63v3.91h.56a7.55,7.55,0,0,1,7.43-4.56,8.39,8.39,0,0,1,6.37,2.49c1.58,1.66,2.37,4.14,2.37,7.46v13.75h-3.63v-13a8,8,0,0,0-1.62-5.44,5.68,5.68,0,0,0-4.42-1.81,6.36,6.36,0,0,0-5.18,2.26,9.08,9.08,0,0,0-1.88,6Z"/><path class="cls-1" d="M974.21,154.26h7.25v-9.48h3.63v9.48H994v3.35h-8.92v15c0,.93.41,1.4,1.25,1.4h6.55v3.34H985a3.47,3.47,0,0,1-2.58-1,3.55,3.55,0,0,1-1-2.6V157.61h-7.25Z"/></g><g id="Layer_4" data-name="Layer 4"><rect class="cls-2" width="227.54" height="227.54" rx="5.67" ry="5.67"/></g><g id="Layer_1-2" data-name="Layer 1"><g id="Livello_2" data-name="Livello 2"><g id="Layer_4-2" data-name="Layer 4"><path class="cls-1" d="M133.1,160.35a18.6,18.6,0,0,0-18.39-16h-3.44a18.61,18.61,0,0,0-18.44,16,197.25,197.25,0,0,0-2.06,28,2.68,2.68,0,0,0,2.08,2.6c4,.91,12.87,2.74,20.08,2.75s16.12-1.8,20.09-2.7a2.67,2.67,0,0,0,2.09-2.59A196.57,196.57,0,0,0,133.1,160.35Z"/><path class="cls-1" d="M162.42,104.6a6.13,6.13,0,0,0-1.48-.12C159.57,81,139,62.27,113.83,62.27S68.1,81,66.73,104.48a6.41,6.41,0,0,0-6.59,6.23,6.5,6.5,0,0,0,.13,1.46l.91,4.5a6.43,6.43,0,0,0,7.58,5l.51-.1c6.38,17.52,23.94,30.11,44.61,30.11s38.22-12.59,44.61-30.11l.51.13a6.43,6.43,0,0,0,7.58-5l.91-4.5a6.43,6.43,0,0,0-5-7.59Z"/><rect class="cls-1" x="148.27" y="91.77" width="28.33" height="2.3" transform="translate(49.65 242.25) rotate(-82.71)"/><circle class="cls-1" cx="164.23" cy="78.88" r="3.6"/><rect class="cls-1" x="64.08" y="78.76" width="2.3" height="28.33" transform="translate(-11.26 9.03) rotate(-7.29)"/><circle class="cls-1" cx="63.43" cy="78.88" r="3.6"/><circle class="cls-3" cx="113.77" cy="113.77" r="80.5"/></g></g></g></g></svg>